<?xml version="1.0" standalone="no"?>
<!DOCTYPE svg PUBLIC "-//W3C//DTD SVG 20010904//EN"
 "http://www.w3.org/TR/2001/REC-SVG-20010904/DTD/svg10.dtd">
<svg version="1.0" xmlns="http://www.w3.org/2000/svg"
 width="1316.000000pt" height="426.000000pt" viewBox="0 0 1316.000000 426.000000"
 preserveAspectRatio="xMidYMid meet">

<g transform="translate(0.000000,426.000000) scale(0.100000,-0.100000)"
fill="#000000" stroke="none">
<path d="M3180 2205 l0 -1785 175 0 175 0 0 1630 0 1630 573 0 c321 0 602 -5
640 -10 246 -36 457 -213 563 -475 161 -395 6 -893 -335 -1074 -142 -75 -132
-73 -639 -78 l-453 -5 3 -151 3 -152 375 -3 c581 -4 705 14 911 135 233 137
400 350 488 622 42 128 55 219 56 371 0 150 -13 233 -57 360 -106 305 -306
535 -579 667 -122 59 -189 79 -319 93 -54 5 -414 10 -837 10 l-743 0 0 -1785z"/>
<path d="M9277 3548 l2 -123 81 -3 80 -3 0 126 0 125 -82 0 -83 0 2 -122z"/>
<path d="M8195 3158 c-141 -11 -251 -60 -325 -144 -103 -118 -118 -306 -33
-412 57 -70 155 -111 421 -177 289 -72 362 -125 354 -260 -6 -89 -69 -163
-172 -201 -69 -25 -223 -30 -312 -10 -85 19 -199 71 -269 121 -26 19 -51 35
-56 35 -6 0 -27 -24 -47 -52 l-37 -53 38 -32 c54 -47 185 -109 278 -134 45
-11 128 -23 191 -26 257 -13 431 62 521 223 21 38 36 143 30 205 -18 168 -119
235 -487 324 -183 44 -292 91 -320 138 -38 62 -21 187 33 245 36 39 113 72
197 84 141 21 302 -21 414 -107 l50 -38 38 44 c20 24 38 49 38 56 0 14 -49 55
-106 89 -113 67 -272 96 -439 82z"/>
<path d="M10485 3159 c-191 -16 -365 -139 -454 -320 -55 -113 -72 -183 -78
-319 -5 -98 -2 -130 17 -205 37 -150 116 -280 223 -366 111 -89 223 -129 365
-129 165 0 283 50 405 173 l77 77 0 -152 c0 -218 -27 -298 -131 -392 -96 -86
-210 -121 -374 -113 -174 8 -286 57 -390 169 l-63 68 -50 -42 -51 -41 32 -45
c134 -188 390 -280 671 -243 217 29 380 130 463 287 64 120 63 107 63 876 l0
698 -75 0 -75 0 0 -125 c0 -69 -4 -125 -9 -125 -4 0 -25 21 -45 47 -54 70
-142 141 -221 179 -80 39 -181 53 -300 43z m178 -154 c26 -4 83 -24 126 -46
90 -45 184 -136 227 -220 25 -50 25 -52 22 -267 -3 -205 -4 -219 -27 -262 -76
-145 -246 -250 -407 -250 -271 0 -499 263 -481 555 12 203 125 385 285 461 57
27 136 43 182 38 14 -2 46 -6 73 -9z"/>
<path d="M6536 3144 c-192 -46 -364 -211 -441 -424 -37 -100 -46 -270 -20
-385 55 -251 258 -462 490 -510 220 -46 461 18 600 160 34 33 71 80 83 103
l22 43 -26 9 c-14 6 -46 15 -72 22 -43 11 -47 10 -61 -11 -115 -166 -316 -245
-501 -197 -186 49 -344 230 -366 421 l-7 55 563 0 563 0 -6 98 c-14 252 -153
473 -357 570 -47 22 -109 45 -138 51 -73 15 -255 12 -326 -5z m305 -130 c30
-9 74 -27 99 -42 59 -34 145 -116 172 -163 12 -21 24 -36 27 -34 4 2 7 -4 8
-13 1 -9 9 -37 18 -62 9 -24 19 -66 22 -92 l6 -48 -477 0 -476 0 0 38 c1 91
81 246 164 319 48 41 140 90 194 102 61 15 184 12 243 -5z"/>
<path d="M12341 3145 c-130 -36 -267 -132 -354 -245 l-26 -35 -1 138 0 137
-80 0 -80 0 0 -654 0 -654 83 1 82 2 5 410 c5 450 3 433 71 532 73 105 187
187 305 217 78 20 126 20 192 1 64 -19 106 -54 136 -114 49 -96 49 -102 55
-586 l6 -460 83 -3 82 -3 0 453 c0 257 -5 481 -10 518 -25 157 -91 270 -191
325 -51 28 -61 30 -179 32 -87 2 -141 -2 -179 -12z"/>
<path d="M9279 2503 c0 -351 -2 -646 -4 -655 -3 -16 6 -18 81 -18 l84 0 0 655
0 655 -80 0 -80 0 -1 -637z"/>
<path d="M5690 1265 l0 -115 -45 0 -45 0 0 -65 0 -65 44 0 45 0 3 -234 c3
-257 4 -260 71 -310 41 -31 138 -34 226 -7 79 24 79 24 57 106 -14 54 -14 54
-88 40 -28 -6 -44 -3 -63 9 l-25 16 0 190 0 190 70 0 70 0 0 65 0 65 -70 0
-70 0 0 115 0 115 -90 0 -90 0 0 -115z"/>
<path d="M462 1154 c-118 -31 -189 -122 -180 -229 8 -91 44 -118 241 -179 131
-41 162 -63 152 -104 -9 -38 -27 -53 -74 -62 -68 -12 -173 15 -243 62 -14 10
-30 18 -35 18 -12 0 -65 -99 -58 -110 3 -5 27 -22 52 -37 102 -59 263 -80 374
-47 156 47 212 240 95 329 -29 22 -152 68 -253 94 -87 23 -113 81 -57 129 40
35 129 28 215 -16 34 -18 63 -31 64 -30 66 95 68 99 48 114 -36 30 -119 63
-183 73 -81 13 -92 13 -158 -5z"/>
<path d="M4174 1159 c-118 -15 -224 -93 -271 -196 -23 -50 -25 -64 -22 -171 4
-106 7 -121 31 -163 37 -63 93 -115 158 -147 49 -24 66 -27 160 -27 92 0 112
3 160 26 72 34 136 97 168 167 37 80 43 203 12 284 -61 164 -215 252 -396 227z
m135 -164 c38 -19 77 -66 91 -111 20 -60 7 -159 -26 -207 -77 -108 -225 -102
-291 10 -24 40 -28 59 -28 119 0 61 4 77 30 119 17 26 46 56 65 66 42 23 120
25 159 4z"/>
<path d="M2208 701 c-2 -254 -1 -466 0 -471 2 -6 37 -10 78 -10 l74 0 0 390 0
390 131 0 c103 0 137 -3 159 -16 80 -48 91 -191 20 -259 -28 -27 -37 -29 -120
-33 l-90 -4 0 -74 0 -74 98 0 c165 0 243 43 304 168 28 57 33 77 33 137 -1
123 -67 230 -173 282 -57 28 -59 28 -284 31 l-228 3 -2 -460z"/>
<path d="M5224 1141 c-22 -10 -61 -42 -87 -72 l-47 -54 0 68 0 67 -80 0 -80 0
0 -345 0 -345 85 0 85 0 0 206 c0 191 2 209 21 240 24 39 102 80 172 90 l47 6
0 79 0 79 -37 0 c-21 0 -56 -9 -79 -19z"/>
<path d="M1170 902 c0 -279 8 -326 63 -389 41 -47 82 -63 161 -63 88 0 167 31
228 88 l48 45 0 -31 c0 -67 79 -115 160 -97 30 7 30 7 30 78 0 61 -3 74 -20
85 -19 12 -20 23 -20 272 l0 260 -90 0 -90 0 0 -218 0 -217 -31 -38 c-57 -69
-155 -98 -208 -61 -45 32 -51 67 -51 309 l0 225 -90 0 -90 0 0 -248z"/>
</g>
</svg>
